<?xml version="1.0" encoding="UTF-8" standalone="no"?>
<svg viewBox="0 0 24 24" version="1.1" id="svg1" width="24" height="24" xml:space="preserve" xmlns="http://www.w3.org/2000/svg" xmlns:svg="http://www.w3.org/2000/svg"><defs id="defs1" /><g id="logo" transform="matrix(0.029143,0,0,0.029143,-2.80561,-2.71712)"><path id="B" d="M 117.324,93.2362 V 916.765 H 563.535 C 673.013,916.765 756.066,896.762 812.695,856.764 870.072,816.767 898.764,761.082 898.764,689.708 898.764,641.858 886.303,601.076 861.391,567.352 837.226,532.843 802.494,506.567 757.196,488.531 755.259,487.746 753.076,487.225 751.106,486.475 783.468,468.943 809.187,447.069 827.415,420.29 850.068,387.352 861.391,350.099 861.391,308.531 861.391,245.787 835.34,194.407 783.247,154.41 731.154,113.627 650.368,93.2362 540.89,93.2362 Z" fill="#000000" /><path id="fists" d="M 419.908,125.072 C 390.066,124.492 372.717,128.561 361.737,138.007 357.894,141.33 346.708,160.222 336.073,181.63 314.625,224.673 314.782,224.438 289.894,262.458 267.453,296.743 263.964,306.14 265.429,329.75 267.277,360.103 282.05,383.576 308.658,398.173 L 316.03,402.193 301.955,401.259 C 302.24,412.72 303.636,423.591 306.978,434.502 310.791,446.926 318.321,454.77 333.792,462.516 351.721,471.392 368.126,474.93 390.282,474.714 422.866,474.429 441.955,465.838 452.414,446.828 463.364,426.865 459.304,407.638 436.529,370.699 426.867,354.982 426.434,353.458 427.82,340.14 430.632,312.607 430.848,313.797 424.537,313.866 419.859,313.934 416.782,317.453 409.184,331.224 398.136,351.257 391.481,358.973 374.063,372.301 358.71,383.959 354.454,385.011 367.094,373.982 389.201,354.717 406.068,321.995 421.186,269.161 L 429.157,241.344 417.028,229.087 C 406.933,218.894 405.852,217.065 410.933,218.56 418.109,220.634 429.472,220.496 432.981,218.294 436.647,215.945 435.822,203.068 431.506,194.9 426.877,186.132 428.174,185.847 438.476,193.426 456.188,206.518 474.304,205.349 486.532,190.211 L 493.904,180.962 494.031,190.211 C 494.208,210.391 506.367,226.099 541.822,251.94 560.812,265.751 565.658,268.237 573.581,267.952 593.751,267.254 594.901,255.253 578.211,220.506 572.726,209.054 565.167,190.388 561.324,179.016 551.475,149.616 543.414,135.874 534.381,132.778 530.292,131.441 519.146,130.409 509.582,130.498 500.008,130.557 475.051,129.043 454.153,127.146 441.208,125.947 429.855,125.259 419.908,125.072 Z M 590.006,163.338 C 577.061,163.397 567.27,167.909 567.349,173.924 567.388,178.524 579.714,210.824 585.376,221.105 589.19,228.133 603.944,224.998 612.525,215.276 628.272,197.416 613.459,163.289 590.006,163.338 Z M 603.747,230.089 C 597.663,230.099 592.404,230.964 592.414,232.704 592.444,234.11 593.682,239.958 595.166,245.64 598.705,258.968 595.491,267.775 585.18,273.25 573.738,279.305 559.535,276.976 541.478,266.075 530.076,259.224 522.91,256.658 512.796,255.96 491.721,254.388 474.186,264.601 472.79,279.286 472.426,282.805 472.299,285.901 472.387,288.663 472.662,296.959 475.11,302.365 480.29,307.427 488.311,315.222 489.559,315.448 512.334,311.723 521.102,310.337 544.27,307.988 563.801,306.562 603,303.672 624.664,297.49 631.152,287.395 643.281,268.483 637.905,242.003 620.094,232.704 616.762,230.954 609.822,230.07 603.747,230.089 Z M 596.641,310.848 C 587.863,310.917 575.979,312.421 559.977,315.006 546.619,317.139 528.601,318.997 519.834,319.095 511.056,319.183 501.148,320.697 497.855,322.447 488.724,327.155 480.801,340.788 480.899,351.66 481.027,363.347 487.308,370.031 499.998,372.036 505.158,372.832 510.437,373.913 511.793,374.454 513.12,374.926 531.334,374.955 552.202,374.454 587.165,373.609 591.176,372.97 602.401,367.21 616.997,359.759 620.526,353.252 620.369,334.576 620.221,317.424 615.956,310.7 596.641,310.848 Z M 590.143,381.689 540.81,384.303 C 506.525,386.21 490.277,388.029 487.603,390.27 485.165,392.324 483.976,397.386 483.976,403.068 484.005,408.769 485.224,415.109 487.662,419.758 492.105,428.093 505.64,436.674 520.905,440.862 536.033,444.97 568.971,443.152 579.213,437.647 598.911,427.13 607.512,401.377 595.766,388.058 Z M 561.392,474.773 C 545.891,474.498 526.881,476.159 503.084,479.54 480.84,482.706 451.598,486.038 438.073,486.971 394.951,489.94 390.282,494.265 377.219,544.08 373.896,556.859 366.622,578.297 361.069,591.792 349.48,619.914 344.831,634.108 346.452,642.257 347.426,647.152 350.65,649.904 355.977,652.175 366.937,656.814 378.319,653.973 390.626,643.534 443.793,598.398 454.183,585.108 455.294,560.899 L 455.903,548.769 463.275,555.738 C 483.661,574.994 504.893,573.657 529.29,551.58 L 535.787,545.683 529.958,557.547 C 523.284,571.062 522.586,578.572 527.471,583.555 531.678,587.851 548.319,588.224 555.957,584.224 564.39,579.791 562.877,582.671 548.516,598.565 L 535.521,613.044 545.508,642.797 C 563.476,696.348 578.673,724.558 603.344,750.026 615.395,762.49 624.851,772.683 624.32,772.683 623.849,772.673 618.659,770.206 612.79,767.12 597.889,759.246 579.164,739.706 564.341,716.587 554.453,701.204 550.216,697.016 544.633,696.948 536.347,696.918 535.875,700.152 541.753,717.118 548.26,736.108 547.002,742.271 529.683,775.76 515.312,803.607 513.572,808.797 513.464,824.75 513.317,853.589 528.611,874.084 556.026,881.918 571.949,886.478 611.149,885.869 628.812,880.787 664.69,870.447 685.489,854.729 690.807,832.997 694.502,817.918 691.416,807.106 688.654,793.394 680.299,793.345 680.417,793.237 693.352,785.147 708.814,775.494 717.592,764.25 726.93,741.986 734.764,723.31 736.317,692.18 730.144,674.635 728.099,668.698 714.191,647.083 699.25,626.707 674.824,593.257 653.297,558.933 625.126,508.291 612.427,485.517 595.471,475.402 561.392,474.773 Z M 343.779,530.673 C 326.43,530.555 309.494,550.273 308.118,569.607 307.921,572.369 308.029,575.161 308.521,577.854 311.086,592.087 328.347,606.271 341.626,605.062 347.799,604.482 349.912,600.914 358.454,577.048 363.772,561.94 368.195,546.911 368.234,543.609 368.333,536.345 357.766,530.752 343.779,530.673 Z M 327.285,611.5 C 314.222,611.392 311.234,612.474 303.901,620.209 295.516,629.046 290.946,640.33 290.828,651.713 290.798,655.526 291.201,659.301 292.174,663.036 295.821,677.053 301.08,682.626 317.977,690.45 328.848,695.522 339.267,696.889 381.573,698.687 409.351,699.936 441.67,700.899 453.416,700.83 473.36,700.732 475.188,700.231 480.968,692.662 485.146,687.118 487.151,680.198 487.2,671.008 487.406,645.648 471.394,633.941 439.478,636.025 424.999,636.949 419.642,639.052 404.564,649.501 384.846,663.174 367.586,666.968 353.225,660.893 341.921,656.087 337.488,644.39 340.152,626.176 L 342.304,611.569 Z M 346.728,705.253 C 325.565,705.106 318.606,709.981 316.158,722.416 315.549,725.522 315.283,728.913 315.293,732.402 315.293,742.91 317.898,754.263 322.193,761.085 326.636,768.083 335.217,772.575 352.016,776.635 367.458,780.36 435.006,777.912 454.625,772.949 481.764,766.039 488.104,753.978 476.673,731.193 467.895,713.549 461.879,710.728 432.578,710.483 418.512,710.365 391.707,708.821 372.992,707.003 362.425,705.941 353.775,705.303 346.728,705.253 Z M 357.452,787.958 349.942,795.33 C 345.086,800.127 343.415,802.86 343.376,808.738 343.376,810.703 343.533,812.994 343.838,815.844 347.73,852.95 386.576,868.029 440.55,853.304 463.147,847.151 478.845,831.925 481.027,814.036 482.295,803.4 481.509,799.046 477.547,794.593 472.78,789.206 468.495,788.813 414.885,788.361 Z" fill="#f8f801" /></g></svg>
