<svg xmlns="http://www.w3.org/2000/svg" width="24" height="24" viewBox="0 0 24 24">
  <path fill="#currentColor" d="M7.9 0C6.31 0 4.73 1.05 4.73 3.16c0 4.2 6.31 4.2 6.31 0C11.05 1.05 9.47 0 7.9 0Zm0 1.9a1.26 1.26 0 0 1 1.26 1.26 1.26 1.26 0 0 1-1.27 1.26 1.26 1.26 0 0 1-1.26-1.26A1.26 1.26 0 0 1 7.9 1.89Zm-2.53 6a3.47 3.47 0 0 0-3.48 3.47v1.26h1.9v-1.26c0-.87.7-1.58 1.58-1.58h5.05c.87 0 1.58.7 1.58 1.58v1.26h1.9v-1.26a3.47 3.47 0 0 0-3.48-3.48Zm1.43 6.82v-.02Zm0 0-1.22 3.46-3.69.09 2.95 2.2L3.76 24l3.04-2.11L9.83 24l-1.09-3.52 2.96-2.24-3.7-.08Zm10.4-.02L16 18.18l-3.7.09 2.96 2.2L14.19 24l3.03-2.11L20.24 24l-1.08-3.52 2.95-2.24-3.7-.08Z"/>
</svg>
