<svg xmlns="http://www.w3.org/2000/svg" xml:space="preserve" viewBox="0 0 24 24">
  <path d="M7.3 2.6a.8.8 0 0 0-.7.7v.3A2.8 2.8 0 0 0 4 6.3v3.5c0 1.5 1.2 2.8 2.7 2.8h5c1.5 0 2.8-1.3 2.8-2.8V6.3c0-1.4-1.2-2.6-2.5-2.7v-.3a.8.8 0 0 0-.8-.7.8.8 0 0 0-.7.7v.3H8v-.3a.8.8 0 0 0-.8-.7zM8 5h2.6a.8.8 0 0 0 .7.7.8.8 0 0 0 .7-.7c.6 0 1 .6 1 1.2v3.5c0 .7-.5 1.3-1.2 1.3h-5c-.7 0-1.2-.6-1.2-1.3V6.3c0-.6.4-1.1 1-1.2a.8.8 0 0 0 .7.7A.8.8 0 0 0 8 5zm-.8 1.4a.8.8 0 0 1 .1 0h-.1zm0 0a.8.8 0 0 0-.7.7.8.8 0 0 0 .8.8.8.8 0 0 0 .7-.8.8.8 0 0 0-.8-.7zm2 0a.8.8 0 0 1 .1 0h-.1zm0 0a.8.8 0 0 0-.7.7.8.8 0 0 0 .8.8.8.8 0 0 0 .7-.8.8.8 0 0 0-.8-.7zm2 0a.8.8 0 0 1 .1 0h-.1zm0 0a.8.8 0 0 0-.7.7.8.8 0 0 0 .8.8.8.8 0 0 0 .7-.8.8.8 0 0 0-.8-.7zm-4 2.2a.8.8 0 0 1 .1 0h-.1zm0 0a.8.8 0 0 0-.7.7.8.8 0 0 0 .8.8.8.8 0 0 0 .7-.8.8.8 0 0 0-.8-.7zm2 0a.8.8 0 0 1 .1 0h-.1zm0 0a.8.8 0 0 0-.7.7.8.8 0 0 0 .8.8.8.8 0 0 0 .7-.8.8.8 0 0 0-.8-.7zM8 14.2l-1 2.7H4l2.3 1.8-.8 2.8 2.4-1.7 2.4 1.7-.9-2.8 2.4-1.8h-3l-.9-2.7zm8.2 0-1 2.7h-2.9l2.4 1.8-.9 2.8 2.4-1.7 2.4 1.7-.8-2.8L20 17h-3l-.9-2.8z"/>
</svg>
