<svg xmlns="http://www.w3.org/2000/svg" width="24" height="24" viewBox="0 0 24 24">
  <path d="M8.75 2.5c-1.25 0-2.5.83-2.5 2.5 0 3.33 5 3.33 5 0 0-1.67-1.25-2.5-2.5-2.5zm0 1.5a1 1 0 0 1 1 1 1 1 0 0 1-1 1 1 1 0 0 1-1-1 1 1 0 0 1 1-1zm-2 4.75A2.75 2.75 0 0 0 4 11.5v1h1.5v-1c0-.69.56-1.25 1.25-1.25h4c.69 0 1.25.56 1.25 1.25v1h1.5v-1a2.75 2.75 0 0 0-2.75-2.75h-4zm1.13 5.4v.01l.01-.02zm0 .01-.96 2.73-2.92.07 2.33 1.75-.85 2.79 2.4-1.67 2.4 1.67-.86-2.79 2.34-1.77-2.93-.06-.95-2.72zm8.24-.02-.95 2.75-2.93.07 2.34 1.75-.85 2.79 2.4-1.67 2.39 1.67-.85-2.79L20 16.94l-2.92-.06-.96-2.74z"/>
</svg>
