<svg xmlns="http://www.w3.org/2000/svg" viewBox="0 0 24 24">
  <path d="m7.9 2.5-.02.01v.01l.01-.02zm-.02.02-.96 2.73L4 5.32l2.33 1.75-.85 2.79 2.4-1.67 2.4 1.67-.86-2.79 2.34-1.77-2.93-.06-.95-2.72zm8.24-.02-.95 2.75-2.93.07 2.34 1.75-.85 2.79 2.4-1.67 2.39 1.67-.85-2.79L20 5.3l-2.92-.06-.96-2.74zM12 8.32l-.95 2.75-2.93.07 2.34 1.75-.85 2.79 2.4-1.67 2.39 1.67-.85-2.79 2.33-1.77-2.92-.06L12 8.32zm-4.1 5.82-.02.01v.01l.01-.02zm-.02.02-.96 2.73-2.92.07 2.33 1.75-.85 2.79 2.4-1.67 2.4 1.67-.86-2.79 2.34-1.77-2.93-.06-.95-2.72zm8.24-.02-.95 2.75-2.93.07 2.34 1.75-.85 2.79 2.4-1.67 2.39 1.67-.85-2.79L20 16.94l-2.92-.06-.96-2.74z"/>
</svg>
