<svg xmlns="http://www.w3.org/2000/svg" viewBox="0 0 24 24">
  <path d="M7.5 2.5C6.67 2.5 6 3.17 6 4v7.5c0 .83.67 1.5 1.5 1.5h9c.83 0 1.5-.67 1.5-1.5V4c0-.83-.67-1.5-1.5-1.5ZM8.63 4c1.65-.16 1.65 2.4 0 2.25-1.65.16-1.65-2.4 0-2.25Zm4.39 2.26c.22-.04.45.05.57.24l2.81 4.1c.12.17.14.4.04.59-.1.18-.3.3-.5.3H8.06a.56.56 0 0 1-.44-.91l1.5-1.88a.56.56 0 0 1 .88 0l.62.79 2.04-2.99a.56.56 0 0 1 .36-.24Zm-5.14 7.89v.01l.01-.02Zm0 .01-.96 2.73-2.92.07 2.33 1.75-.85 2.79 2.4-1.67 2.4 1.67-.86-2.79 2.34-1.77-2.93-.06Zm8.24-.02-.95 2.75-2.93.07 2.34 1.75-.85 2.79 2.4-1.67 2.39 1.67-.85-2.79L20 16.94l-2.92-.06Z"/>
</svg>
