<svg xmlns="http://www.w3.org/2000/svg" width="24" height="24" viewBox="0 0 24 24">
  <path d="M8.75 2.5a4.75 4.75 0 0 0 0 9.5h1.41l.01-1.37H8.75a3.38 3.38 0 0 1 0-6.76h1.42V2.5H8.75zm5.07 0v1.37h1.43a3.38 3.38 0 0 1 0 6.76h-1.43V12h1.43a4.75 4.75 0 0 0 0-9.5h-1.43zm-4.1 4.1zm0 0v1.38h4.56V6.61H9.72zm-1.84 7.54v.02l.01-.02h-.01zm0 .02-.96 2.73-2.92.07 2.33 1.75-.85 2.79 2.4-1.67 2.4 1.67-.86-2.79 2.34-1.77-2.93-.06-.94-2.72zm8.24-.02-.95 2.75-2.93.07 2.34 1.75-.85 2.79 2.4-1.67 2.39 1.67-.85-2.79L20 16.94l-2.92-.06-.96-2.74z"/>
</svg>
